<svg width="49" height="91" viewBox="0 0 49 91" fill="none" xmlns="http://www.w3.org/2000/svg">
<path opacity="0.12" d="M25.0957 0.902344C25.3236 0.902344 26.873 0.856771 29.7441 0.765625L31.9316 0.833984L36.2383 0.902344C36.4206 2.36068 36.5117 3.43164 36.5117 4.11523C36.5117 4.3431 36.4889 5.04948 36.4434 6.23438C36.3978 6.8724 36.3522 9.31055 36.3066 13.5488L36.1699 23.8711L36.2383 30.3652L35.7598 76.5078V80.4043C35.7598 81.7715 36.0788 82.7513 36.7168 83.3438C37.3548 83.9362 39.0638 84.4375 41.8438 84.8477C42.9375 84.9844 45.125 85.349 48.4062 85.9414C48.4974 86.3971 48.543 86.8301 48.543 87.2402C48.543 87.7415 48.4974 88.8353 48.4062 90.5215H45.4668C43.4616 90.5215 40.5449 90.4303 36.7168 90.248C34.3926 90.1113 32.7975 90.043 31.9316 90.043C30.8379 90.043 26.8047 90.1569 19.832 90.3848C19.0573 90.4303 18.4193 90.4531 17.918 90.4531H16.6875L14.7051 90.3164L12.8594 90.4531L9.44141 90.3164C8.98568 90.3164 8.05143 90.3848 6.63867 90.5215C6.54753 89.5189 6.50195 88.7441 6.50195 88.1973C6.50195 87.696 6.54753 86.944 6.63867 85.9414C8.46159 85.4401 10.5807 84.9388 12.9961 84.4375C16.3229 83.7539 18.3509 83.0931 19.0801 82.4551C19.8548 81.7715 20.2422 80.8828 20.2422 79.7891L20.1738 75.1406L20.4473 70.082L20.3789 59.6914L20.3105 57.0254C20.3105 56.6608 20.3561 55.2936 20.4473 52.9238C20.5384 51.6934 20.584 50.5996 20.584 49.6426C20.584 49.0501 20.5156 47.2044 20.3789 44.1055L20.6523 40.209C20.4701 37.2467 20.3789 35.4922 20.3789 34.9453C20.3789 34.2617 20.4017 33.5781 20.4473 32.8945L20.584 31.1855L20.3789 26.5371L20.584 24.418C20.6296 23.4609 20.6523 22.1849 20.6523 20.5898C20.6523 19.0404 20.6296 17.1491 20.584 14.916C17.3483 17.3314 13.6569 19.7467 9.50977 22.1621C9.05404 22.4355 7.00326 23.3698 3.35742 24.9648C1.89909 22.7773 0.964844 21.1367 0.554688 20.043C5.38542 17.5365 8.66667 15.6908 10.3984 14.5059C13.2695 12.5007 16.3685 9.99414 19.6953 6.98633C21.1081 5.66471 22.9082 3.63672 25.0957 0.902344Z" fill="#F4B329"/>
</svg>
