<svg width="61" height="90" viewBox="0 0 61 90" fill="none" xmlns="http://www.w3.org/2000/svg">
<path opacity="0.12" d="M57.6094 89.7266H50.5C48.8138 89.7266 47.4922 89.7038 46.5352 89.6582C45.0312 89.6126 44.1198 89.5898 43.8008 89.5898L39.1523 89.7949L37.9219 89.6582C36.8281 89.5215 35.4837 89.4531 33.8887 89.4531C32.3848 89.4531 29.8099 89.5215 26.1641 89.6582C24.4323 89.7038 23.3841 89.7266 23.0195 89.7266L16.1152 89.5898L5.04102 89.7266H0.666016V85.0781C7.13737 76.875 11.9909 71.1556 15.2266 67.9199C18.5078 64.6387 23.1562 59.2155 29.1719 51.6504C33.3646 46.4551 36.2357 41.8066 37.7852 37.7051C39.3802 33.6035 40.1777 30.0488 40.1777 27.041C40.1777 23.6686 39.6764 20.638 38.6738 17.9492C37.7168 15.2604 35.985 13.1413 33.4785 11.5918C31.0176 10.0423 28.3288 9.26758 25.4121 9.26758C22.4499 9.26758 19.7839 9.99674 17.4141 11.4551C15.0443 12.9134 13.3125 14.7591 12.2188 16.9922C10.5326 20.2279 9.50716 23.6003 9.14258 27.1094H4.15234C4.01562 25.1497 3.94727 23.5091 3.94727 22.1875C3.94727 17.7669 5.65625 13.5286 9.07422 9.47266C14.3607 3.18359 21.8118 0.0390625 31.4277 0.0390625C39.4486 0.0390625 45.7604 2.31771 50.3633 6.875C54.9661 11.3867 57.2676 17.0833 57.2676 23.9648C57.2676 26.6992 56.8346 29.2741 55.9688 31.6895C54.7383 34.9707 53.2344 37.819 51.457 40.2344C49.7253 42.6497 44.9173 47.7995 37.0332 55.6836C31.3366 61.3802 24.2044 68.125 15.6367 75.918L23.2246 76.0547L35.666 75.7812L42.9121 75.918C46.7402 75.918 49.2695 75.5078 50.5 74.6875C51.776 73.8672 52.9382 71.9303 53.9863 68.877C54.2142 68.1478 54.6243 67.054 55.2168 65.5957L59.7285 65.3223L60.6172 65.5957C60.8451 65.9603 60.959 66.3021 60.959 66.6211C60.959 67.3503 60.8451 68.2617 60.6172 69.3555C60.3893 70.4492 60.1159 72.2493 59.7969 74.7559C59.5234 77.2624 58.7943 82.2526 57.6094 89.7266Z" fill="#F4B329"/>
</svg>
