<svg width="61" height="92" viewBox="0 0 61 92" fill="none" xmlns="http://www.w3.org/2000/svg">
<path opacity="0.12" d="M21.9004 48.4375C20.5332 46.7057 19.4167 45.3385 18.5508 44.3359C26.8451 38.3203 32.3822 33.4212 35.1621 29.6387C36.985 27.2233 37.8965 24.6029 37.8965 21.7773C37.8965 18.8607 36.8483 16.3314 34.752 14.1895C32.6556 12.0475 30.263 10.9766 27.5742 10.9766C22.0143 10.9766 16.9557 14.3717 12.3984 21.1621L8.0918 18.8379C10.2793 14.0527 12.4212 10.4753 14.5176 8.10547C16.6595 5.6901 19.6901 3.63932 23.6094 1.95312C26.5716 0.677083 30.263 0.0390625 34.6836 0.0390625C40.6536 0.0390625 45.2565 1.54297 48.4922 4.55078C51.7279 7.51302 53.3457 11.25 53.3457 15.7617C53.3457 19.3164 52.2292 22.7344 49.9961 26.0156C47.763 29.2513 43.7982 32.806 38.1016 36.6797H39.5371C45.6439 36.6797 50.6113 39.0267 54.4395 43.7207C58.3132 48.4147 60.25 53.5417 60.25 59.1016C60.25 63.7956 59.1562 68.6947 56.9688 73.7988C54.8268 78.903 50.862 83.2096 45.0742 86.7188C39.2865 90.1823 32.1771 91.9141 23.7461 91.9141C15.5885 91.9141 9.36784 90.4785 5.08398 87.6074C2.34961 85.7845 0.982422 83.6426 0.982422 81.1816C0.982422 79.4499 1.64323 77.946 2.96484 76.6699C4.28646 75.3939 5.97266 74.7559 8.02344 74.7559C9.75521 74.7559 11.3503 75.2116 12.8086 76.123C14.2669 77.0345 16.2493 79.0853 18.7559 82.2754C20.0319 83.916 21.2624 84.9642 22.4473 85.4199C24.5436 86.2858 26.0703 86.7188 27.0273 86.7188C29.4427 86.7188 31.9492 85.8984 34.5469 84.2578C37.1901 82.6172 39.2865 79.9056 40.8359 76.123C42.3854 72.2949 43.1602 67.8516 43.1602 62.793C43.1602 57.3698 41.793 53.1087 39.0586 50.0098C36.3698 46.8652 33.4076 45.293 30.1719 45.293C27.8021 45.293 25.0449 46.3411 21.9004 48.4375Z" fill="#F4B329"/>
</svg>
