<svg width="110" height="175" viewBox="0 0 110 175" fill="none" xmlns="http://www.w3.org/2000/svg">
<path opacity="0.06" d="M16.1562 150.281H28.1875V138.906C37.0833 137.885 44.0104 135.151 48.9688 130.703C53.9271 126.255 56.4062 120.312 56.4062 112.875C56.4062 105.438 54.2917 99.3854 50.0625 94.7188C45.8333 90.0521 38.6875 85.6042 28.625 81.375C20.1667 77.875 14.0417 74.7396 10.25 71.9688C6.45834 69.1979 4.5625 65.4792 4.5625 60.8125C4.5625 56.2917 6.20312 52.7188 9.48438 50.0938C12.7656 47.4688 17.25 46.1562 22.9375 46.1562C27.3125 46.1562 31.1042 47.1771 34.3125 49.2188C37.5208 51.2604 40.2188 54.3229 42.4062 58.4062L52.9062 53.375C50.4271 48.2708 47.1458 44.2604 43.0625 41.3438C38.9792 38.4271 34.1667 36.6771 28.625 36.0938V24.9375H16.5938V36.0938C9.15625 37.1146 3.28646 39.849 -1.01562 44.2969C-5.31771 48.7448 -7.46875 54.25 -7.46875 60.8125C-7.46875 67.9583 -5.28125 73.6458 -0.90625 77.875C3.46875 82.1042 10.0312 86.0417 18.7812 89.6875C28.5521 93.7708 35.2604 97.4531 38.9062 100.734C42.5521 104.016 44.375 108.062 44.375 112.875C44.375 117.542 42.4427 121.297 38.5781 124.141C34.7135 126.984 29.8646 128.406 24.0312 128.406C18.3438 128.406 13.276 126.802 8.82812 123.594C4.38021 120.385 1.28125 116.01 -0.46875 110.469L-11.625 114.188C-8.5625 120.896 -4.80729 126.182 -0.359375 130.047C4.08854 133.911 9.59375 136.719 16.1562 138.469V150.281ZM22.5 175C10.5417 175 -0.760414 172.703 -11.4062 168.109C-22.0521 163.516 -31.349 157.245 -39.2969 149.297C-47.2448 141.349 -53.5156 132.052 -58.1094 121.406C-62.7031 110.76 -65 99.4583 -65 87.5C-65 75.3958 -62.7031 64.0208 -58.1094 53.375C-53.5156 42.7292 -47.2448 33.4688 -39.2969 25.5938C-31.349 17.7188 -22.0521 11.4844 -11.4062 6.89062C-0.760414 2.29688 10.5417 0 22.5 0C34.6042 0 45.9792 2.29688 56.625 6.89062C67.2708 11.4844 76.5312 17.7188 84.4062 25.5938C92.2812 33.4688 98.5156 42.7292 103.109 53.375C107.703 64.0208 110 75.3958 110 87.5C110 99.4583 107.703 110.76 103.109 121.406C98.5156 132.052 92.2812 141.349 84.4062 149.297C76.5312 157.245 67.2708 163.516 56.625 168.109C45.9792 172.703 34.6042 175 22.5 175ZM22.5 161.875C43.2083 161.875 60.7812 154.62 75.2188 140.109C89.6562 125.599 96.875 108.062 96.875 87.5C96.875 66.7917 89.6562 49.2188 75.2188 34.7812C60.7812 20.3438 43.2083 13.125 22.5 13.125C1.9375 13.125 -15.599 20.3438 -30.1094 34.7812C-44.6198 49.2188 -51.875 66.7917 -51.875 87.5C-51.875 108.062 -44.6198 125.599 -30.1094 140.109C-15.599 154.62 1.9375 161.875 22.5 161.875Z" fill="black"/>
</svg>
