<svg width="14" height="8" viewBox="0 0 14 8" fill="none" xmlns="http://www.w3.org/2000/svg">
<path d="M13.2533 0.022572C13.5354 0.0883098 13.7929 0.304696 13.9216 0.581342C13.9846 0.721034 13.9983 0.781293 13.9956 0.978506C13.9956 1.41676 14.2585 1.12094 10.7306 4.65433C8.60235 6.78533 7.55329 7.81795 7.46838 7.86452C7.26843 7.97134 7.03561 8.00969 6.82744 7.96586C6.73431 7.94669 6.6001 7.90013 6.53162 7.86452C6.44671 7.81795 5.39765 6.78533 3.26939 4.65433C-0.258525 1.12094 0.00442505 1.41676 0.00442505 0.978506C0.00442505 0.781293 0.0153818 0.721034 0.0811186 0.575863C0.3112 0.0718756 0.924751 -0.141771 1.426 0.107483C1.49722 0.143091 2.48876 1.11546 4.26641 2.89037L7 5.62122L9.73359 2.89037C11.5195 1.10724 12.5028 0.143091 12.574 0.107483C12.7822 0.00613785 13.0396 -0.0267305 13.2533 0.022572Z" fill="#252525"/>
</svg>
