<svg width="21" height="19" viewBox="0 0 21 19" fill="none" xmlns="http://www.w3.org/2000/svg">
<path d="M10.1828 18.66L9.13907 17.7181C7.34405 16.0698 5.86004 14.6479 4.68705 13.4525C3.51405 12.257 2.57965 11.1884 1.88382 10.2465C1.18799 9.30454 0.700068 8.45173 0.420041 7.68802C0.140014 6.92431 0 6.15211 0 5.37143C0 3.84138 0.513383 2.56363 1.54015 1.53819C2.56692 0.51273 3.83553 0 5.34597 0C6.31334 0 7.20858 0.229113 8.03169 0.68734C8.8548 1.14557 9.57184 1.80745 10.1828 2.67299C10.8956 1.75653 11.6508 1.08192 12.4485 0.649154C13.2461 0.216385 14.1032 0 15.0196 0C16.5301 0 17.7987 0.51273 18.8255 1.53819C19.8522 2.56363 20.3656 3.84138 20.3656 5.37143C20.3656 6.15211 20.2256 6.92431 19.9456 7.68802C19.6656 8.45173 19.1776 9.30454 18.4818 10.2465C17.786 11.1884 16.8516 12.257 15.6786 13.4525C14.5056 14.6479 13.0216 16.0698 11.2265 17.7181L10.1828 18.66ZM10.1828 16.6489C11.9009 15.0706 13.3148 13.7172 14.4244 12.5886C15.534 11.4599 16.4155 10.4713 17.0689 9.62276C17.7223 8.77419 18.1806 8.01782 18.4436 7.35364C18.7067 6.68945 18.8382 6.02995 18.8382 5.37512C18.8382 4.25255 18.4818 3.33063 17.769 2.60935C17.0562 1.88806 16.1417 1.52742 15.0254 1.52742C14.1509 1.52742 13.3416 1.79472 12.5974 2.32932C11.8532 2.86392 11.252 3.6149 10.7938 4.58226H9.54638C9.10513 3.63187 8.5124 2.88513 7.76821 2.34205C7.024 1.79896 6.21468 1.52742 5.34025 1.52742C4.22396 1.52742 3.30941 1.88806 2.59662 2.60935C1.88382 3.33063 1.52742 4.254 1.52742 5.37948C1.52742 6.036 1.65895 6.69944 1.92201 7.36981C2.18506 8.04018 2.64329 8.80389 3.29668 9.66094C3.95008 10.518 4.83683 11.5066 5.95694 12.6267C7.07705 13.7468 8.48567 15.0875 10.1828 16.6489Z" fill="#252525"/>
</svg>
