<svg width="35" height="30" viewBox="0 0 35 30" fill="none" xmlns="http://www.w3.org/2000/svg">
<path d="M0.520281 0.140074C0.233459 0.286821 0 0.680367 0 1.00054C0 1.33405 0.233459 1.71426 0.533621 1.86767C0.780421 1.99441 0.920497 2.00108 3.52857 2.00108H6.27005L6.3034 2.14783C6.39011 2.50135 9.87199 18.2098 9.87199 18.2432C9.87199 18.2565 9.74526 18.3366 9.59184 18.4166C9.43176 18.4966 9.13826 18.7301 8.93816 18.9369C8.04434 19.8574 7.83756 21.1247 8.39119 22.3054C8.77807 23.1325 9.61185 23.7728 10.5323 23.9463C10.7325 23.9796 11.3128 24.013 11.833 24.0196C12.5601 24.0263 12.7069 24.0396 12.4801 24.0863C10.9659 24.3798 9.87199 25.9407 10.1255 27.4548C10.3989 29.089 11.9264 30.223 13.514 29.9628C14.8213 29.7494 15.8085 28.7622 16.022 27.4548C16.2754 25.9407 15.1815 24.3798 13.6674 24.0863C13.4939 24.053 16.1554 24.0263 20.1108 24.0263C24.0663 24.0263 26.7278 24.053 26.5543 24.0863C25.0402 24.3798 23.9463 25.9407 24.1997 27.4548C24.4132 28.7622 25.4004 29.7494 26.7077 29.9628C28.2953 30.223 29.8228 29.089 30.0962 27.4548C30.3497 25.9407 29.2558 24.3798 27.7416 24.0863C27.5148 24.0396 27.6683 24.0263 28.402 24.0196C29.2158 24.013 29.3959 23.9929 29.616 23.8796C29.9161 23.7261 30.1496 23.3459 30.1496 23.0124C30.1496 22.6789 29.9161 22.2987 29.616 22.1453C29.3558 22.0119 29.2424 22.0119 20.1108 22.0119C10.9793 22.0119 10.8659 22.0119 10.6057 21.8785C10.3056 21.7251 10.0721 21.3448 10.0721 21.0113C10.0721 20.7112 10.3056 20.2976 10.559 20.1642C10.7591 20.0508 11.3395 20.0441 20.1242 20.0108C29.4359 19.9774 29.4759 19.9774 29.656 19.8374C29.7561 19.764 29.8961 19.6306 29.9628 19.5372C30.0962 19.3638 34.1518 5.2495 34.1518 4.96935C34.1518 4.66919 33.905 4.28231 33.6181 4.13556C33.358 4.00216 33.2513 4.00216 21.058 4.00216H8.75806L8.39786 2.3546C8.13772 1.16063 7.99098 0.640345 7.87091 0.460247C7.57742 0 7.59743 0 3.98215 0C0.913826 0.00667 0.75374 0.01334 0.520281 0.140074Z" fill="#252525"/>
</svg>
