<svg width="13" height="12" viewBox="0 0 13 12" fill="none" xmlns="http://www.w3.org/2000/svg">
<path d="M6.06826 0.0132713C4.68387 0.185245 3.52736 0.748455 2.56431 1.7244C1.70874 2.58856 1.21862 3.50862 0.964961 4.71673C0.861777 5.22405 0.861777 6.35907 0.964961 6.86639C1.21862 8.0745 1.71304 8.99885 2.56431 9.85872C3.42847 10.7315 4.37432 11.2431 5.59533 11.4968C6.09835 11.5999 7.22907 11.5999 7.75359 11.4968C8.91441 11.2646 9.87745 10.7487 10.7373 9.89741C11.6058 9.04185 12.1217 8.0874 12.3754 6.86639C12.4785 6.35907 12.4785 5.22405 12.3754 4.71673C12.2077 3.92135 11.9024 3.18617 11.4639 2.52408C11.193 2.11564 10.3547 1.27297 9.95484 1.01071C9.26265 0.550687 8.51457 0.236836 7.77939 0.0949583C7.43114 0.0261698 6.36921 -0.0254221 6.06826 0.0132713Z" fill="#252525"/>
</svg>
